# xmcd CD database file
#
# Track frame offsets:
#	150
#	23575
#	41150
#	58625
#	78163
#	94213
#	110963
#	125375
#	142738
#	155988
#	171800
#	189088
#	201688
#	214388
#	228300
#	244275
#	260063
#	276650
#	290975
#	305400
#
# Disc length: 4260 seconds
#
# Revision: 1
# Processed by: cddbd v1.5.2PL0 Copyright (c) Steve Scherf et al.
# Submitted via: CDex 1.51
#
DISCID=3c10a214
DTITLE=鄧麗君 - 粵語名曲珍藏版
DYEAR=1998
DGENRE=Blues
TTITLE0=怎麼開始
TTITLE1=遇見舊情人
TTITLE2=從今日起
TTITLE3=情話
TTITLE4=風霜伴我行
TTITLE5=漫步人生路
TTITLE6=東山飄雨西山晴
TTITLE7=有誰知我此時情
TTITLE8=忘記他
TTITLE9=雨中追憶
TTITLE10=遇見你
TTITLE11=雪中情
TTITLE12=一水隔天涯
TTITLE13=向日葵
TTITLE14=我心裡邊
TTITLE15=結識你的那一天
TTITLE16=可否多見你一眼
TTITLE17=我要你
TTITLE18=浪子心聲
TTITLE19=相思淚
EXTD=YEAR: 1998
EXTT0=
EXTT1=
EXTT2=
EXTT3=
EXTT4=
EXTT5=
EXTT6=
EXTT7=
EXTT8=
EXTT9=
EXTT10=
EXTT11=
EXTT12=
EXTT13=
EXTT14=
EXTT15=
EXTT16=
EXTT17=
EXTT18=
EXTT19=
PLAYORDER=
